<svg xmlns="http://www.w3.org/2000/svg" width="30" height="131" viewBox="0 0 30 131"><path fill-rule="evenodd" fill="#D20000" d="M24.717 66.838c-4.154 0-6.231 2.4-6.231 7.552v41.746c0 9.417-4.847 14.125-14.541 14.125H.483v-2.631h4.432c7.201 0 10.801-3.832 10.801-11.494V74.39c0-2.844.904-4.737 1.039-6.029.692-.691 1.821-1.371 3.392-2.908-1.571-.646-2.7-1.616-3.392-2.908-.135-1.293-1.039-3.185-1.039-5.677V14.771c0-7.662-3.6-11.494-10.801-11.494H.483V.646h3.462c9.694 0 14.541 4.708 14.541 14.125v42.097c0 4.892 2.077 7.339 6.231 7.339h4.847v2.631h-4.847Z"/></svg>