<svg xmlns="http://www.w3.org/2000/svg" width="24" height="25" viewBox="0 0 24 25"><defs><linearGradient id="b" x1="97.815%" x2="0%" y1="20.791%" y2="0%"><stop offset="0%" stop-color="#F29CFF"/><stop offset="100%" stop-color="#56A0FF"/></linearGradient><filter filterUnits="userSpaceOnUse" id="a" x="0" y="0" width="24" height="25"><feOffset in="SourceAlpha" dy="3"/><feGaussianBlur result="blurOut" stdDeviation="1.732"/><feFlood flood-color="#072953" result="floodOut"/><feComposite operator="atop" in="floodOut" in2="blurOut"/><feComponentTransfer><feFuncA type="linear" slope=".19"/></feComponentTransfer><feMerge><feMergeNode/><feMergeNode in="SourceGraphic"/></feMerge></filter></defs><g filter="url(#a)"><path fill-rule="evenodd" fill="#59A0FF" d="M20.954 6.849c-.291-.902-1.354-1.108-3.591-1.33-.93-.121-1.987-.257-1.793-.239-.834-.485-1.282-1.44-1.678-2.284C13.172 1.461 12.489.13 11.536.1l-.018.6c-.946-.47-1.635.754-2.367 2.272-.404.84-.863 1.792-1.183 2.022-.324.229-1.381.357-2.314.469-1.696.204-3.301.396-3.114 1.292-.786.898.386 1.999 1.627 3.165.682.64 1.453 1.366 1.575 1.739.121.671-.085 2.031-.264 2.321-.329 1.659-.64 3.231.129 3.793.184.13.613.196.688.19 1.495-.012 1.913-.617 3.004-1.203.818-.442 2.141-.941 2.158-.946.399 0 1.329.514 2.15.966 1.115.613 2.27 1.5 3.056 1.37.245-.04.454-.201.626-.323 1.331-.551.478-2.122.167-3.437-.17-1.263.484-1.51-.241-2.676.125-.371.905-1.088 1.593-1.724 1.802-1.154 2.435-2.24 2.146-3.141Z"/></g><path fill="url(#b)" d="M20.954 6.849c-.291-.902-1.354-1.108-3.591-1.33-.93-.121-1.987-.257-1.793-.239-.834-.485-1.282-1.44-1.678-2.284C13.172 1.461 12.489.13 11.536.1l-.018.6c-.946-.47-1.635.754-2.367 2.272-.404.84-.863 1.792-1.183 2.022-.324.229-1.381.357-2.314.469-1.696.204-3.301.396-3.114 1.292-.786.898.386 1.999 1.627 3.165.682.64 1.453 1.366 1.575 1.739.121.671-.085 2.031-.264 2.321-.329 1.659-.64 3.231.129 3.793.184.13.613.196.688.19 1.495-.012 1.913-.617 3.004-1.203.818-.442 2.141-.941 2.158-.946.399 0 1.329.514 2.15.966 1.115.613 2.27 1.5 3.056 1.37.245-.04.454-.201.626-.323 1.331-.551.478-2.122.167-3.437-.17-1.263.484-1.51-.241-2.676.125-.371.905-1.088 1.593-1.724 1.802-1.154 2.435-2.24 2.146-3.141Z"/></svg>