<svg xmlns="http://www.w3.org/2000/svg" width="2208" height="389" viewBox="0 0 2208 389" preserveAspectRatio="none"><path fill-rule="evenodd" fill="#3D6FAF" d="M2041.954 55.573c31.026-22.46 13.789-10.934 66.316-46.033 52.041-35.098 99.729 37.975 99.729 37.975v341.473H0V47.517c55.731 77.778 433.211 69.046 565.358 55.237 107.441-11.226 300.318 9.811 391.269 108.621 77.564 84.268 79.863 92.283 210.86 61.238 130.998-31.046 163.467 71.129 240.263 95.969 50.46 16.685 80.012 12.268 105.043-23.592 11.49-16.11 18.96-38.245 32.749-121.405 45.964-194.151 179.26-166.285 230.969-149.699 200.465 64.301 253.952-9.995 265.443-18.313Z"/></svg>