<svg xmlns="http://www.w3.org/2000/svg" width="86" height="64" viewBox="0 0 86 64"><path fill-rule="evenodd" fill="#285590" d="M30.994 26.277 38.69.263H17.14L6.365 23.198c-2.566 5.44-4.209 9.493-4.926 12.16C.72 38.28.362 40.695.362 43.363c0 5.952 1.897 11.507 6.208 14.315 3.282 3.593 8.158 5.972 14.11 5.972 5.951 0 10.826-2.379 14.624-5.972 4.686-2.808 5.695-8.363 5.695-14.315 0-4.003-.873-7.466-2.617-10.391-1.746-2.492-4.209-5.156-7.388-6.695Zm44.639 0L83.329.263h-21.55L51.4 23.198c-2.962 5.44-4.605 9.493-4.61 12.16-1.431 2.922-1.69 5.337-1.69 8.005 0 5.952 1.799 11.507 5.596 14.315 3.796 3.593 8.671 5.972 14.624 5.972 5.95 0 10.825-2.379 14.623-5.972 3.795-2.808 5.695-8.363 5.695-14.315 0-4.003-.873-7.466-2.428-10.391-1.935-2.492-4.398-5.156-7.577-6.695Z"/></svg>