<svg xmlns="http://www.w3.org/2000/svg" preserveAspectRatio="none" width="2067" height="589" viewBox="0 0 2067 589"><path fill-rule="evenodd" fill="#3D6FAF" d="M2030.562 91.966c-11.388 2.303-36.562 8.955-46.15 18.024l-.192-.728c-10.579 9.036-104.456 89.201-253.987 14.866-16.609-7.595-58.029-22.998-90.831-23.836-57.635-1.47-78.409 18.105-96.104 35.408-.469-.19-.927.249-1.395.686-20.487 19.255-33.527 62.833-48.026 125.433-14.275 61.636-37.702 68.507-61.97 75.626-2.611.766-5.231 1.535-7.357 2.375-44.728 14.38-71.063 4.044-98.176-12-4.847-2.87-10.557-7.349-17.174-12.689-33.066-25.807-91.562-71.716-202.762-53.312-77.588 12.841-94.75-26.529-113.909-71.034-.166.1-8.808-37.443-69.389-85.63-160.37-128.112-342.36-16.694-439.51 15.311-23.135 7.445-41.276 13.431-53.776 15.92-91.259 18.172-189.645-32.987-275.254-77.784C97.333 29.104 45.912 2.366 5.326.1L2.13 492.209 0 493.275l2.13 72.284 2053.076 23.439 11.719-48.845-.735-1.963-12.191-445.627-23.437-.597Z"/></svg>