<svg xmlns="http://www.w3.org/2000/svg" preserveAspectRatio="none" width="2030" height="300" viewBox="0 0 2030 300"><path fill-rule="evenodd" fill="#3D6FAF" d="M152.659 248.193c-28.525 20.6-12.678 10.029-60.747 42.22C43.843 322.602 0 255.584 0 255.584V.6h2029.999v207.246c-51.239-71.334-398.288-63.327-519.781-50.661-98.78 10.297-276.108-8.998-359.727-99.623-71.311-77.287-88.391-29.366-193.861-.891C836.192 85.144 806.341 51.73 736.356 28.95c-47.012-15.304-74.182-10.551-97.195 21.635-10.564 14.777-17.431 18.195-29.641 93.763-42.726 178.067-165.277 102.261-212.817 87.049-184.304-58.974-233.479 9.167-244.044 16.796Z"/></svg>