<svg xmlns="http://www.w3.org/2000/svg" preserveAspectRatio="none" width="2001" height="513" viewBox="0 0 2001 513"><path fill-rule="evenodd" fill="#3D6FAF" d="M1850.521 461.723c28.117 20.817 12.649 9.897 59.879 41.67 47.382 31.772 90.599-34.233 90.599-34.233V0H0v469.14c50.506-70.532 392.598-62.628 512.356-50.02 97.368 10.055 272.163-8.988 354.587-98.434 70.293-76.282 72.376-83.538 191.407-55.434 118.402 28.103 147.827-64.389 216.812-86.874 46.341-15.105 73.122-10.413 95.806 21.355 10.414 14.584 17.183 34.622 29.679 109.9 41.655 175.752 162.455 150.527 209.316 135.513 181.671-58.208 230.144 9.047 240.558 16.577Z"/></svg>