<svg xmlns="http://www.w3.org/2000/svg" width="124" height="24" viewBox="0 0 124 24"><defs><linearGradient id="b" x1="97.815%" x2="0%" y1="20.791%" y2="0%"><stop offset="0%" stop-color="#F29CFF"/><stop offset="100%" stop-color="#56A0FF"/></linearGradient><filter filterUnits="userSpaceOnUse" id="a" x="0" y="0" width="124" height="24"><feOffset in="SourceAlpha" dy="3"/><feGaussianBlur result="blurOut" stdDeviation="1.732"/><feFlood flood-color="#072953" result="floodOut"/><feComposite operator="atop" in="floodOut" in2="blurOut"/><feComponentTransfer><feFuncA type="linear" slope=".19"/></feComponentTransfer><feMerge><feMergeNode/><feMergeNode in="SourceGraphic"/></feMerge></filter></defs><g filter="url(#a)"><path fill-rule="evenodd" fill="#59A0FF" d="M118.808 9.99c-.688.636-1.468 1.353-1.593 1.724.725 1.156.071 1.412.241 2.676.311 1.315 1.164 2.886-.168 3.437-.17.122-.38.293-.625.323-.786.13-1.941-.757-3.056-1.37-.821-.452-1.751-.965-2.15-.965-.017.005-1.34.503-2.158.946-1.091.586-1.509 1.19-3.004 1.202-.075.006-.504-.06-.688-.19-.769-.562-.458-2.133-.13-3.793.18-.29.386-1.65.265-2.32-.122-.374-.893-1.1-1.575-1.741-1.241-1.164-2.413-2.267-1.627-3.163-.187-.898 1.418-1.088 3.114-1.293.933-.112 1.99-.24 2.314-.468.32-.231.779-1.182 1.183-2.022.732-1.52 1.421-2.743 2.367-2.273l.018-.6c.953.02 1.635 1.361 2.356 2.896.396.844.844 1.8 1.678 2.284-.194-.018.863.118 1.793.239 2.237.223 3.3.429 3.592 1.33.288.901-.345 1.988-2.147 3.141Zm-26.593 1.724c.725 1.156.071 1.412.241 2.676.311 1.315 1.164 2.886-.167 3.437-.171.122-.381.293-.626.323-.786.13-1.941-.757-3.057-1.37-.82-.452-1.75-.965-2.149-.965-.017.005-1.34.503-2.158.946-1.091.586-1.509 1.19-3.004 1.202-.075.006-.504-.06-.688-.19-.769-.562-.458-2.133-.13-3.793.18-.29.386-1.65.265-2.32-.122-.374-.893-1.1-1.575-1.741-1.241-1.164-2.413-2.267-1.627-3.163-.187-.898 1.418-1.088 3.114-1.293.933-.112 1.99-.24 2.314-.468.32-.231.779-1.182 1.183-2.022C84.883 1.453 85.572.23 86.518.7l.018-.6c.953.02 1.635 1.361 2.356 2.896.396.844.844 1.8 1.678 2.284-.194-.018.863.118 1.793.239 2.237.223 3.3.429 3.591 1.33.289.901-.344 1.988-2.146 3.141-.688.636-1.468 1.353-1.593 1.724Zm-25 0c.725 1.156.071 1.412.241 2.676.311 1.315 1.164 2.886-.167 3.437-.172.122-.381.293-.626.323-.786.13-1.941-.757-3.056-1.37-.821-.452-1.751-.965-2.15-.965-.017.005-1.34.503-2.158.946-1.091.586-1.509 1.19-3.004 1.202-.075.006-.504-.06-.688-.19-.769-.562-.458-2.133-.13-3.793.18-.29.386-1.65.265-2.32-.122-.374-.893-1.1-1.575-1.741-1.241-1.164-2.413-2.267-1.627-3.163-.187-.898 1.418-1.088 3.114-1.293.933-.112 1.99-.24 2.313-.468.321-.231.78-1.182 1.184-2.022C59.883 1.453 60.572.23 61.518.7l.018-.6c.953.02 1.636 1.361 2.356 2.896.396.844.844 1.8 1.678 2.284-.194-.018.863.118 1.793.239 2.237.223 3.3.429 3.591 1.33.289.901-.344 1.988-2.146 3.141-.688.636-1.468 1.353-1.593 1.724Zm-25 0c.725 1.156.07 1.412.242 2.676.31 1.315 1.163 2.886-.169 3.437-.171.122-.38.293-.625.323-.786.13-1.941-.757-3.056-1.37-.821-.452-1.751-.965-2.15-.965-.017.005-1.34.503-2.158.946-1.091.586-1.509 1.19-3.004 1.202-.075.006-.504-.06-.688-.19-.769-.562-.458-2.133-.13-3.793.18-.29.386-1.65.265-2.32-.122-.374-.893-1.1-1.575-1.741-1.241-1.164-2.413-2.267-1.627-3.163-.187-.898 1.418-1.088 3.114-1.293.933-.112 1.99-.24 2.313-.468.321-.231.78-1.182 1.184-2.022C34.883 1.453 35.572.23 36.518.7l.018-.6c.953.02 1.636 1.361 2.356 2.896.396.844.844 1.8 1.678 2.284-.194-.018.863.118 1.793.239 2.237.223 3.3.429 3.591 1.33.289.901-.344 1.988-2.146 3.141-.688.636-1.468 1.353-1.593 1.724Zm-25 0c.725 1.156.07 1.412.241 2.676.311 1.315 1.164 2.886-.168 3.437-.17.122-.38.293-.625.323-.786.13-1.941-.757-3.056-1.37-.821-.452-1.751-.965-2.15-.965-.017.005-1.34.503-2.158.946-1.091.586-1.509 1.19-3.004 1.202-.075.006-.504-.06-.688-.19-.769-.562-.458-2.133-.13-3.793.18-.29.386-1.65.265-2.32-.122-.374-.893-1.1-1.575-1.741C2.926 8.755 1.754 7.652 2.54 6.756c-.187-.898 1.418-1.088 3.114-1.293.933-.112 1.99-.24 2.313-.468.321-.231.78-1.182 1.184-2.022C9.883 1.453 10.572.23 11.518.7l.018-.6c.953.02 1.635 1.361 2.356 2.896.396.844.844 1.8 1.678 2.284-.194-.018.863.118 1.793.239 2.247.223 3.3.429 3.592 1.33.288.901-.345 1.988-2.147 3.141-.688.636-1.468 1.353-1.593 1.724Z"/></g><path fill="url(#b)" d="M118.808 9.99c-.688.636-1.468 1.353-1.593 1.724.725 1.156.071 1.412.241 2.676.311 1.315 1.164 2.886-.168 3.437-.17.122-.38.293-.625.323-.786.13-1.941-.757-3.056-1.37-.821-.452-1.751-.965-2.15-.965-.017.005-1.34.503-2.158.946-1.091.586-1.509 1.19-3.004 1.202-.075.006-.504-.06-.688-.19-.769-.562-.458-2.133-.13-3.793.18-.29.386-1.65.265-2.32-.122-.374-.893-1.1-1.575-1.741-1.241-1.164-2.413-2.267-1.627-3.163-.187-.898 1.418-1.088 3.114-1.293.933-.112 1.99-.24 2.314-.468.32-.231.779-1.182 1.183-2.022.732-1.52 1.421-2.743 2.367-2.273l.018-.6c.953.02 1.635 1.361 2.356 2.896.396.844.844 1.8 1.678 2.284-.194-.018.863.118 1.793.239 2.237.223 3.3.429 3.592 1.33.288.901-.345 1.988-2.147 3.141Zm-26.593 1.724c.725 1.156.071 1.412.241 2.676.311 1.315 1.164 2.886-.167 3.437-.171.122-.381.293-.626.323-.786.13-1.941-.757-3.057-1.37-.82-.452-1.75-.965-2.149-.965-.017.005-1.34.503-2.158.946-1.091.586-1.509 1.19-3.004 1.202-.075.006-.504-.06-.688-.19-.769-.562-.458-2.133-.13-3.793.18-.29.386-1.65.265-2.32-.122-.374-.893-1.1-1.575-1.741-1.241-1.164-2.413-2.267-1.627-3.163-.187-.898 1.418-1.088 3.114-1.293.933-.112 1.99-.24 2.314-.468.32-.231.779-1.182 1.183-2.022C84.883 1.453 85.572.23 86.518.7l.018-.6c.953.02 1.635 1.361 2.356 2.896.396.844.844 1.8 1.678 2.284-.194-.018.863.118 1.793.239 2.237.223 3.3.429 3.591 1.33.289.901-.344 1.988-2.146 3.141-.688.636-1.468 1.353-1.593 1.724Zm-25 0c.725 1.156.071 1.412.241 2.676.311 1.315 1.164 2.886-.167 3.437-.172.122-.381.293-.626.323-.786.13-1.941-.757-3.056-1.37-.821-.452-1.751-.965-2.15-.965-.017.005-1.34.503-2.158.946-1.091.586-1.509 1.19-3.004 1.202-.075.006-.504-.06-.688-.19-.769-.562-.458-2.133-.13-3.793.18-.29.386-1.65.265-2.32-.122-.374-.893-1.1-1.575-1.741-1.241-1.164-2.413-2.267-1.627-3.163-.187-.898 1.418-1.088 3.114-1.293.933-.112 1.99-.24 2.313-.468.321-.231.78-1.182 1.184-2.022C59.883 1.453 60.572.23 61.518.7l.018-.6c.953.02 1.636 1.361 2.356 2.896.396.844.844 1.8 1.678 2.284-.194-.018.863.118 1.793.239 2.237.223 3.3.429 3.591 1.33.289.901-.344 1.988-2.146 3.141-.688.636-1.468 1.353-1.593 1.724Zm-25 0c.725 1.156.07 1.412.242 2.676.31 1.315 1.163 2.886-.169 3.437-.171.122-.38.293-.625.323-.786.13-1.941-.757-3.056-1.37-.821-.452-1.751-.965-2.15-.965-.017.005-1.34.503-2.158.946-1.091.586-1.509 1.19-3.004 1.202-.075.006-.504-.06-.688-.19-.769-.562-.458-2.133-.13-3.793.18-.29.386-1.65.265-2.32-.122-.374-.893-1.1-1.575-1.741-1.241-1.164-2.413-2.267-1.627-3.163-.187-.898 1.418-1.088 3.114-1.293.933-.112 1.99-.24 2.313-.468.321-.231.78-1.182 1.184-2.022C34.883 1.453 35.572.23 36.518.7l.018-.6c.953.02 1.636 1.361 2.356 2.896.396.844.844 1.8 1.678 2.284-.194-.018.863.118 1.793.239 2.237.223 3.3.429 3.591 1.33.289.901-.344 1.988-2.146 3.141-.688.636-1.468 1.353-1.593 1.724Zm-25 0c.725 1.156.07 1.412.241 2.676.311 1.315 1.164 2.886-.168 3.437-.17.122-.38.293-.625.323-.786.13-1.941-.757-3.056-1.37-.821-.452-1.751-.965-2.15-.965-.017.005-1.34.503-2.158.946-1.091.586-1.509 1.19-3.004 1.202-.075.006-.504-.06-.688-.19-.769-.562-.458-2.133-.13-3.793.18-.29.386-1.65.265-2.32-.122-.374-.893-1.1-1.575-1.741C2.926 8.755 1.754 7.652 2.54 6.756c-.187-.898 1.418-1.088 3.114-1.293.933-.112 1.99-.24 2.313-.468.321-.231.78-1.182 1.184-2.022C9.883 1.453 10.572.23 11.518.7l.018-.6c.953.02 1.635 1.361 2.356 2.896.396.844.844 1.8 1.678 2.284-.194-.018.863.118 1.793.239 2.247.223 3.3.429 3.592 1.33.288.901-.345 1.988-2.147 3.141-.688.636-1.468 1.353-1.593 1.724Z"/></svg>