<?xml version="1.0" encoding="utf-8"?>
<!-- Generator: Adobe Illustrator 26.3.1, SVG Export Plug-In . SVG Version: 6.00 Build 0)  -->
<svg version="1.1" id="Layer_1" xmlns="http://www.w3.org/2000/svg" xmlns:xlink="http://www.w3.org/1999/xlink" x="0px" y="0px"
	 viewBox="0 0 63 78.8" style="enable-background:new 0 0 63 78.8;" xml:space="preserve">
<style type="text/css">
	.st0{fill:#FFFFFF;}
</style>
<g>
	<g>
		<path class="st0" d="M38.5,31.2h-1.3V30H39c0.3,0,0.6-0.3,0.6-0.6v-5c0-0.3-0.3-0.6-0.6-0.6H24c-0.3,0-0.6,0.3-0.6,0.6v5
			c0,0.3,0.3,0.6,0.6,0.6h1.9v1.3h-1.3c-1.3,0-2.4,1.1-2.4,2.4v19c0,1.3,1.1,2.4,2.4,2.4h14c1.3,0,2.4-1.1,2.4-2.4v-19
			C40.9,32.3,39.8,31.2,38.5,31.2z M24.6,28.7V25h13.8v3.8H24.6z M35.9,30v1.3h-8.8V30H35.9z M39.7,52.7c0,0.7-0.5,1.2-1.2,1.2h-14
			c-0.7,0-1.2-0.5-1.2-1.2v-2.6h16.3V52.7z M39.7,48.8H23.3V37.5h16.3V48.8z M23.3,36.3v-2.6c0-0.7,0.5-1.2,1.2-1.2h14
			c0.7,0,1.2,0.5,1.2,1.2v2.6H23.3z"/>
	</g>
	<g>
		<path class="st0" d="M15.5,50.4c-0.2,0.2-0.4,0.5-0.5,0.9c-0.1,0.3-0.2,0.7-0.2,1.1c0,0.4,0.1,0.7,0.2,1.1
			c0.1,0.3,0.3,0.6,0.5,0.9c0.2,0.2,0.5,0.4,0.8,0.6c0.3,0.1,0.7,0.2,1,0.2c0.4,0,0.7-0.1,1-0.2c0.3-0.1,0.6-0.3,0.8-0.6
			c0.2-0.2,0.4-0.5,0.5-0.9c0.1-0.3,0.2-0.7,0.2-1.1c0-0.4-0.1-0.7-0.2-1.1c-0.1-0.3-0.3-0.6-0.5-0.9c-0.2-0.2-0.5-0.4-0.8-0.6
			c-0.3-0.1-0.7-0.2-1-0.2c-0.4,0-0.7,0.1-1,0.2C16,50,15.7,50.2,15.5,50.4z M18,50.9c0.2,0.1,0.4,0.2,0.5,0.3
			c0.1,0.1,0.3,0.3,0.3,0.5c0.1,0.2,0.1,0.4,0.1,0.6s0,0.4-0.1,0.6c-0.1,0.2-0.2,0.4-0.3,0.5c-0.1,0.1-0.3,0.2-0.5,0.3
			c-0.2,0.1-0.4,0.1-0.6,0.1c-0.2,0-0.5,0-0.6-0.1c-0.2-0.1-0.4-0.2-0.5-0.3c-0.1-0.1-0.3-0.3-0.3-0.5c-0.1-0.2-0.1-0.4-0.1-0.6
			s0-0.4,0.1-0.6c0.1-0.2,0.2-0.4,0.3-0.5c0.1-0.1,0.3-0.2,0.5-0.3c0.2-0.1,0.4-0.1,0.6-0.1C17.6,50.8,17.8,50.9,18,50.9z"/>
		<path class="st0" d="M17,47.6c-0.1-0.2-0.1-0.3-0.1-0.5c0-0.2,0-0.3,0.1-0.5c0.1-0.1,0.2-0.3,0.4-0.4l-0.5-0.9
			c-0.3,0.1-0.6,0.4-0.7,0.7c-0.2,0.3-0.3,0.6-0.3,1c0,0.4,0.1,0.8,0.3,1.1c0.2,0.3,0.4,0.6,0.7,0.8c0.3,0.2,0.6,0.3,1,0.3
			c0.4,0,0.7-0.1,1-0.3c0.3-0.2,0.5-0.4,0.7-0.8c0.2-0.3,0.3-0.7,0.3-1.1c0-0.4-0.1-0.8-0.3-1c-0.2-0.3-0.4-0.5-0.7-0.7l-0.5,0.9
			c0.2,0.1,0.3,0.2,0.4,0.4c0.1,0.1,0.1,0.3,0.1,0.5c0,0.2,0,0.4-0.1,0.5c-0.1,0.2-0.2,0.3-0.4,0.4C18.3,48,18.1,48,17.9,48
			c-0.2,0-0.4,0-0.6-0.1C17.2,47.8,17.1,47.7,17,47.6z"/>
		<path class="st0" d="M17.9,42c0.2,0,0.4,0,0.6,0.1c0.2,0.1,0.3,0.2,0.3,0.3c0.1,0.1,0.1,0.3,0.1,0.5c0,0.2-0.1,0.4-0.2,0.6
			c-0.1,0.1-0.4,0.2-0.7,0.2h-2v1.1h2.2c0.4,0,0.7-0.1,1-0.2c0.3-0.1,0.4-0.3,0.6-0.6c0.1-0.2,0.2-0.5,0.2-0.8
			c0-0.3-0.1-0.6-0.2-0.8c-0.1-0.1-0.2-0.3-0.3-0.4h0.5v-1H16V42H17.9z"/>
		<path class="st0" d="M19,38.1c0,0.1,0,0.3-0.1,0.3c-0.1,0.1-0.2,0.1-0.4,0.1h-1.6v-0.9h-0.9v0.9h-0.9v1.1h0.9v0.6h0.9v-0.6h1.6
			c0.5,0,0.8-0.1,1-0.4c0.2-0.3,0.3-0.6,0.3-1c0-0.2,0-0.3-0.1-0.5c0-0.2-0.1-0.3-0.2-0.4l-0.8,0.3C18.9,37.8,19,37.9,19,38.1z"/>
		<path class="st0" d="M16.2,34.1c-0.2,0.3-0.2,0.6-0.2,1c0,0.4,0.1,0.7,0.3,1c0.2,0.3,0.4,0.5,0.7,0.7c0.3,0.2,0.6,0.3,1,0.3
			c0.4,0,0.7-0.1,1-0.3c0.3-0.2,0.5-0.4,0.7-0.8s0.3-0.7,0.3-1.1c0-0.3-0.1-0.6-0.2-0.9c-0.1-0.3-0.3-0.5-0.5-0.7L18.6,34
			c0.1,0.1,0.2,0.3,0.3,0.4c0.1,0.2,0.1,0.3,0.1,0.5c0,0.2,0,0.4-0.1,0.6c-0.1,0.2-0.2,0.3-0.4,0.4c-0.1,0-0.2,0.1-0.3,0.1v-2.9
			c0,0-0.1,0-0.2,0c-0.1,0-0.1,0-0.1,0c-0.4,0-0.8,0.1-1.1,0.3C16.6,33.6,16.3,33.8,16.2,34.1z M16.9,35.6c-0.1-0.1-0.1-0.3-0.1-0.5
			s0-0.4,0.1-0.5c0.1-0.1,0.2-0.3,0.3-0.3c0.1-0.1,0.2-0.1,0.3-0.1V36c-0.1,0-0.2,0-0.3-0.1C17.1,35.9,17,35.7,16.9,35.6z"/>
		<path class="st0" d="M16.1,29.3c-0.1,0.2-0.2,0.5-0.2,0.8c0,0.3,0.1,0.6,0.2,0.9c0.1,0.2,0.2,0.3,0.3,0.4H16v1.1h3.8v-1.1h-1.9
			c-0.2,0-0.4,0-0.6-0.1c-0.2-0.1-0.3-0.2-0.3-0.3c-0.1-0.1-0.1-0.3-0.1-0.5c0-0.2,0.1-0.4,0.2-0.6c0.1-0.1,0.4-0.2,0.7-0.2h2v-1.1
			h-2.2c-0.4,0-0.7,0.1-1,0.2C16.4,28.8,16.2,29,16.1,29.3z"/>
		<path class="st0" d="M16.9,24c-0.3,0.2-0.5,0.4-0.7,0.7c-0.2,0.3-0.2,0.6-0.2,1c0,0.4,0.1,0.7,0.3,1c0.2,0.3,0.4,0.5,0.7,0.7
			c0.3,0.2,0.6,0.3,1,0.3c0.4,0,0.7-0.1,1-0.3c0.3-0.2,0.5-0.4,0.7-0.8c0.2-0.3,0.3-0.7,0.3-1.1c0-0.3-0.1-0.6-0.2-0.9
			c-0.1-0.3-0.3-0.5-0.5-0.7l-0.6,0.6c0.1,0.1,0.2,0.3,0.3,0.4c0.1,0.2,0.1,0.3,0.1,0.5c0,0.2,0,0.4-0.1,0.6
			c-0.1,0.2-0.2,0.3-0.4,0.4c-0.1,0-0.2,0.1-0.3,0.1v-2.9c0,0-0.1,0-0.2,0c-0.1,0-0.1,0-0.1,0C17.5,23.7,17.1,23.8,16.9,24z
			 M16.9,26.2c-0.1-0.1-0.1-0.3-0.1-0.5c0-0.2,0-0.4,0.1-0.5c0.1-0.1,0.2-0.3,0.3-0.3c0.1-0.1,0.2-0.1,0.3-0.1v1.9
			c-0.1,0-0.2,0-0.3-0.1C17.1,26.5,17,26.3,16.9,26.2z"/>
	</g>
	<g>
		<path class="st0" d="M47.5,28.4c0.2-0.2,0.4-0.5,0.5-0.9c0.1-0.3,0.2-0.7,0.2-1.1c0-0.4-0.1-0.7-0.2-1.1c-0.1-0.3-0.3-0.6-0.5-0.9
			c-0.2-0.2-0.5-0.4-0.8-0.6c-0.3-0.1-0.7-0.2-1-0.2c-0.4,0-0.7,0.1-1,0.2c-0.3,0.1-0.6,0.3-0.8,0.6c-0.2,0.2-0.4,0.5-0.5,0.9
			c-0.1,0.3-0.2,0.7-0.2,1.1c0,0.4,0.1,0.7,0.2,1.1c0.1,0.3,0.3,0.6,0.5,0.9c0.2,0.2,0.5,0.4,0.8,0.6c0.3,0.1,0.7,0.2,1,0.2
			c0.4,0,0.7-0.1,1-0.2C47,28.8,47.3,28.6,47.5,28.4z M45,27.9c-0.2-0.1-0.4-0.2-0.5-0.3c-0.1-0.1-0.3-0.3-0.3-0.5
			c-0.1-0.2-0.1-0.4-0.1-0.6c0-0.2,0-0.4,0.1-0.6c0.1-0.2,0.2-0.4,0.3-0.5c0.1-0.1,0.3-0.2,0.5-0.3c0.2-0.1,0.4-0.1,0.6-0.1
			c0.2,0,0.5,0,0.6,0.1c0.2,0.1,0.4,0.2,0.5,0.3c0.1,0.1,0.3,0.3,0.3,0.5c0.1,0.2,0.1,0.4,0.1,0.6c0,0.2,0,0.4-0.1,0.6
			c-0.1,0.2-0.2,0.4-0.3,0.5s-0.3,0.2-0.5,0.3C46.1,28,45.9,28,45.7,28C45.4,28,45.2,28,45,27.9z"/>
		<path class="st0" d="M46,31.3c0.1,0.2,0.1,0.3,0.1,0.5c0,0.2,0,0.3-0.1,0.5c-0.1,0.1-0.2,0.3-0.4,0.4l0.5,0.9
			c0.3-0.1,0.6-0.4,0.7-0.7c0.2-0.3,0.3-0.6,0.3-1c0-0.4-0.1-0.8-0.3-1.1c-0.2-0.3-0.4-0.6-0.7-0.8c-0.3-0.2-0.6-0.3-1-0.3
			c-0.4,0-0.7,0.1-1,0.3c-0.3,0.2-0.5,0.4-0.7,0.8c-0.2,0.3-0.3,0.7-0.3,1.1c0,0.4,0.1,0.8,0.3,1c0.2,0.3,0.4,0.5,0.7,0.7l0.5-0.9
			c-0.2-0.1-0.3-0.2-0.4-0.4C44.1,32.1,44,32,44,31.8c0-0.2,0-0.4,0.1-0.5c0.1-0.2,0.2-0.3,0.4-0.4c0.2-0.1,0.3-0.1,0.6-0.1
			c0.2,0,0.4,0,0.6,0.1C45.8,31,45.9,31.1,46,31.3z"/>
		<path class="st0" d="M45.1,36.9c-0.2,0-0.4,0-0.6-0.1c-0.2-0.1-0.3-0.2-0.3-0.3s-0.1-0.3-0.1-0.5c0-0.2,0.1-0.4,0.2-0.6
			c0.1-0.1,0.4-0.2,0.7-0.2h2v-1.1h-2.2c-0.4,0-0.7,0.1-1,0.2c-0.3,0.1-0.4,0.3-0.6,0.6c-0.1,0.2-0.2,0.5-0.2,0.8
			c0,0.3,0.1,0.6,0.2,0.8c0.1,0.1,0.2,0.3,0.3,0.4h-0.5v1H47v-1.1H45.1z"/>
		<path class="st0" d="M44,40.7c0-0.1,0-0.3,0.1-0.3c0.1-0.1,0.2-0.1,0.4-0.1h1.6v0.9h0.9v-0.9h0.9v-1.1h-0.9v-0.6h-0.9v0.6h-1.6
			c-0.5,0-0.8,0.1-1,0.4c-0.2,0.3-0.3,0.6-0.3,1c0,0.2,0,0.3,0.1,0.5c0,0.2,0.1,0.3,0.2,0.4l0.8-0.3C44.1,41,44,40.9,44,40.7z"/>
		<path class="st0" d="M46.8,44.7c0.2-0.3,0.2-0.6,0.2-1c0-0.4-0.1-0.7-0.3-1c-0.2-0.3-0.4-0.5-0.7-0.7c-0.3-0.2-0.6-0.3-1-0.3
			c-0.4,0-0.7,0.1-1,0.3c-0.3,0.2-0.5,0.4-0.7,0.8c-0.2,0.3-0.3,0.7-0.3,1.1c0,0.3,0.1,0.6,0.2,0.9c0.1,0.3,0.3,0.5,0.5,0.7l0.6-0.6
			c-0.1-0.1-0.2-0.3-0.3-0.4c-0.1-0.2-0.1-0.3-0.1-0.5c0-0.2,0-0.4,0.1-0.6c0.1-0.2,0.2-0.3,0.4-0.4c0.1,0,0.2-0.1,0.3-0.1v2.9
			c0,0,0.1,0,0.2,0c0.1,0,0.1,0,0.1,0c0.4,0,0.8-0.1,1.1-0.3C46.4,45.3,46.7,45,46.8,44.7z M46.1,43.2c0.1,0.1,0.1,0.3,0.1,0.5
			c0,0.2,0,0.4-0.1,0.5c-0.1,0.1-0.2,0.3-0.3,0.3c-0.1,0.1-0.2,0.1-0.3,0.1v-1.9c0.1,0,0.2,0,0.3,0.1C45.9,43,46,43.1,46.1,43.2z"/>
		<path class="st0" d="M46.9,49.6c0.1-0.2,0.2-0.5,0.2-0.8c0-0.3-0.1-0.6-0.2-0.9c-0.1-0.2-0.2-0.3-0.3-0.4H47v-1.1h-3.8v1.1h1.9
			c0.2,0,0.4,0,0.6,0.1c0.2,0.1,0.3,0.2,0.3,0.3c0.1,0.1,0.1,0.3,0.1,0.5c0,0.2-0.1,0.4-0.2,0.6c-0.1,0.1-0.4,0.2-0.7,0.2h-2v1.1
			h2.2c0.4,0,0.7-0.1,1-0.2C46.6,50,46.8,49.8,46.9,49.6z"/>
		<path class="st0" d="M46.1,54.8c0.3-0.2,0.5-0.4,0.7-0.7c0.2-0.3,0.2-0.6,0.2-1c0-0.4-0.1-0.7-0.3-1c-0.2-0.3-0.4-0.5-0.7-0.7
			c-0.3-0.2-0.6-0.3-1-0.3c-0.4,0-0.7,0.1-1,0.3c-0.3,0.2-0.5,0.4-0.7,0.8s-0.3,0.7-0.3,1.1c0,0.3,0.1,0.6,0.2,0.9
			c0.1,0.3,0.3,0.5,0.5,0.7l0.6-0.6c-0.1-0.1-0.2-0.3-0.3-0.4c-0.1-0.2-0.1-0.3-0.1-0.5c0-0.2,0-0.4,0.1-0.6
			c0.1-0.2,0.2-0.3,0.4-0.4c0.1,0,0.2-0.1,0.3-0.1v2.9c0,0,0.1,0,0.2,0c0.1,0,0.1,0,0.1,0C45.5,55.1,45.9,55,46.1,54.8z M46.1,52.6
			c0.1,0.1,0.1,0.3,0.1,0.5s0,0.4-0.1,0.5c-0.1,0.1-0.2,0.3-0.3,0.3c-0.1,0.1-0.2,0.1-0.3,0.1v-1.9c0.1,0,0.2,0,0.3,0.1
			C45.9,52.4,46,52.5,46.1,52.6z"/>
	</g>
</g>
</svg>
