<svg xmlns="http://www.w3.org/2000/svg" width="2067" height="589" viewBox="0 0 2067 589" preserveAspectRatio="none"><path fill-rule="evenodd" fill="#3D6FAF" d="M36.376 497.31c11.388-2.582 36.563-8.54 46.151-17.413l.192-.162c10.579-9.036 104.46-89.2 253.995-14.866 16.609 7.595 58.03 22.999 90.833 23.836 57.637 1.47 78.411-18.106 96.107-34.778.469-.439.927-.447 1.846-1.317 20.037-19.254 33.077-62.832 48.27-125.432 13.583-61.637 37.01-68.507 61.72-75.625 2.169-.767 4.79-1.383 7.411-2.376 44.234-14.181 70.57-4.045 97.684 12a305.176 305.176 0 0 1 17.355 12.688c32.886 25.808 91.384 71.717 202.587 53.313 77.591-12.841 94.753 26.79 113.912 71.035.167-.101 8.809 31.442 69.392 79.629 161.068 128.114 343.073 16.695 440.09-15.311 22.569-6.681 40.71-13.431 53.211-15.921 91.262-18.171 189.651 38.988 275.803 83.785 56.728 29.497 108.915 56.236 148.737 58.605l3.197-492.212 2.13-1.066-2.13-72.284L11.73 0 .11 48.844l.636 1.964 12.192 445.625 23.438.877Z"/></svg>